<svg width="240" height="240" viewBox="0 0 240 240" fill="none" xmlns="http://www.w3.org/2000/svg">
  <defs>
    <linearGradient id="bg" x1="32" y1="24" x2="216" y2="216" gradientUnits="userSpaceOnUse">
      <stop stop-color="#E7F8FF"/>
      <stop offset="1" stop-color="#FFF3D8"/>
    </linearGradient>
    <linearGradient id="book" x1="70" y1="112" x2="170" y2="170" gradientUnits="userSpaceOnUse">
      <stop stop-color="#A4D0FF"/>
      <stop offset="1" stop-color="#83C3A2"/>
    </linearGradient>
  </defs>

  <rect x="20" y="20" width="200" height="200" rx="48" fill="url(#bg)"/>
  <rect x="20" y="20" width="200" height="200" rx="48" stroke="#D8C9EE" stroke-width="6"/>

  <path d="M68 150C68 137.85 77.85 128 90 128H118V174H90C77.85 174 68 164.15 68 152V150Z" fill="url(#book)"/>
  <path d="M172 150C172 137.85 162.15 128 150 128H122V174H150C162.15 174 172 164.15 172 152V150Z" fill="#9AD6BC"/>
  <rect x="118" y="124" width="6" height="54" rx="3" fill="#7A6AA8"/>

  <circle cx="102" cy="95" r="24" fill="#FFDDAF"/>
  <circle cx="138" cy="95" r="24" fill="#FFE9C9"/>
  <path d="M86 95C86 86.1634 93.1634 79 102 79C110.837 79 118 86.1634 118 95V107H86V95Z" fill="#F9B6A8"/>
  <path d="M122 95C122 86.1634 129.163 79 138 79C146.837 79 154 86.1634 154 95V107H122V95Z" fill="#F8C8AF"/>

  <circle cx="100" cy="95" r="3.5" fill="#6E5A8E"/>
  <circle cx="140" cy="95" r="3.5" fill="#6E5A8E"/>
  <path d="M95 111C98 114.5 106 114.5 109 111" stroke="#6E5A8E" stroke-width="3" stroke-linecap="round"/>
  <path d="M131 111C134 114.5 142 114.5 145 111" stroke="#6E5A8E" stroke-width="3" stroke-linecap="round"/>

  <path d="M43 55C60 42 81 44 94 57" stroke="#A8DFB3" stroke-width="6" stroke-linecap="round"/>
  <path d="M196 61C179 48 158 49 145 62" stroke="#B9D6FF" stroke-width="6" stroke-linecap="round"/>
</svg>
