<svg width="800" height="520" viewBox="0 0 800 520" xmlns="http://www.w3.org/2000/svg" fill="none">
  <defs>
    <linearGradient id="sky" x1="30" y1="30" x2="770" y2="500" gradientUnits="userSpaceOnUse">
      <stop stop-color="#E9FFF2"/>
      <stop offset="1" stop-color="#FFF5E8"/>
    </linearGradient>
  </defs>

  <rect x="20" y="20" width="760" height="480" rx="30" fill="url(#sky)" stroke="#DED1F2" stroke-width="6"/>
  <rect x="52" y="72" width="696" height="86" rx="18" fill="#FFFDF8" stroke="#E8DCC6" stroke-width="3"/>
  <rect x="74" y="94" width="270" height="40" rx="14" fill="#F3EBFF"/>
  <rect x="602" y="94" width="124" height="38" rx="19" fill="#D8F1DA" stroke="#B7DFBB" stroke-width="3"/>

  <rect x="58" y="180" width="684" height="284" rx="20" fill="#F2FFF2" stroke="#D5EACC" stroke-width="3"/>
  <rect x="80" y="324" width="640" height="72" rx="26" fill="#F3DEC1" stroke="#DFC39E" stroke-width="3"/>

  <circle cx="140" cy="238" r="26" fill="#A4DEAA"/>
  <circle cx="214" cy="224" r="22" fill="#96D89D"/>
  <circle cx="280" cy="238" r="24" fill="#A4DEAA"/>
  <circle cx="580" cy="230" r="26" fill="#A4DEAA"/>
  <circle cx="646" cy="220" r="22" fill="#96D89D"/>

  <text x="160" y="360" font-size="56">🐶</text>
  <text x="490" y="356" font-size="44">🪵</text>

  <rect x="272" y="206" width="260" height="122" rx="20" fill="#FFF9EE" stroke="#F0D0AA" stroke-width="3"/>
  <text x="356" y="252" font-size="40" fill="#5E4D83" font-family="Nunito, Arial" font-weight="800">3 + 4</text>

  <rect x="300" y="270" width="62" height="36" rx="14" fill="#FFA779"/>
  <rect x="372" y="270" width="62" height="36" rx="14" fill="#8DD089"/>
  <rect x="444" y="270" width="62" height="36" rx="14" fill="#95C8FF"/>
  <text x="324" y="296" font-size="22" fill="#fff" font-weight="800" font-family="Nunito, Arial">5</text>
  <text x="396" y="296" font-size="22" fill="#fff" font-weight="800" font-family="Nunito, Arial">7</text>
  <text x="468" y="296" font-size="22" fill="#fff" font-weight="800" font-family="Nunito, Arial">9</text>
</svg>
