<svg width="800" height="520" viewBox="0 0 800 520" xmlns="http://www.w3.org/2000/svg" fill="none">
  <defs>
    <linearGradient id="bg" x1="20" y1="20" x2="780" y2="500" gradientUnits="userSpaceOnUse">
      <stop stop-color="#DFF4FF"/>
      <stop offset="1" stop-color="#FFF3DD"/>
    </linearGradient>
  </defs>

  <rect x="20" y="20" width="760" height="480" rx="30" fill="url(#bg)" stroke="#DED1F2" stroke-width="6"/>
  <rect x="50" y="66" width="700" height="82" rx="16" fill="#FFFDF8" stroke="#E8DCC6" stroke-width="3"/>
  <rect x="72" y="90" width="250" height="36" rx="14" fill="#F3EBFF"/>

  <rect x="62" y="170" width="676" height="304" rx="20" fill="#E9FFF1" stroke="#CFE7DA" stroke-width="3"/>
  <rect x="82" y="372" width="636" height="72" rx="24" fill="#F3DEC1"/>

  <circle cx="155" cy="235" r="22" fill="#9EDDA8"/>
  <circle cx="232" cy="228" r="20" fill="#8CCF97"/>
  <circle cx="592" cy="232" r="24" fill="#9EDDA8"/>

  <rect x="432" y="230" width="44" height="54" rx="8" fill="#996842"/>
  <rect x="520" y="278" width="52" height="44" rx="8" fill="#8F5D38"/>

  <path d="M152 280L210 258L210 302L152 280Z" fill="#F2D6B2"/>
  <rect x="166" y="272" width="18" height="14" rx="3" fill="#8FC7F6"/>
  <rect x="205" y="276" width="8" height="8" rx="2" fill="#F4978E"/>

  <rect x="84" y="182" width="610" height="10" rx="5" fill="#A6E1B0"/>
  <rect x="84" y="182" width="438" height="10" rx="5" fill="#5FB07D"/>
</svg>
