<svg width="800" height="520" viewBox="0 0 800 520" xmlns="http://www.w3.org/2000/svg" fill="none">
  <defs>
    <linearGradient id="bg" x1="60" y1="40" x2="760" y2="480" gradientUnits="userSpaceOnUse">
      <stop stop-color="#F6F1FF"/>
      <stop offset="1" stop-color="#F7FFE8"/>
    </linearGradient>
    <linearGradient id="sky" x1="420" y1="90" x2="420" y2="390" gradientUnits="userSpaceOnUse">
      <stop stop-color="#F4FDFF"/>
      <stop offset="1" stop-color="#FFF8FC"/>
    </linearGradient>
  </defs>

  <rect x="20" y="20" width="760" height="480" rx="34" fill="url(#bg)" stroke="#E1D4F7" stroke-width="6"/>
  <rect x="50" y="56" width="700" height="70" rx="18" fill="#FFFDF8" stroke="#EADCC6" stroke-width="3"/>
  <rect x="66" y="76" width="300" height="28" rx="12" fill="#F7ECFF"/>
  <rect x="595" y="74" width="130" height="34" rx="17" fill="#D9F2DB" stroke="#B6DDB9" stroke-width="3"/>

  <rect x="58" y="146" width="332" height="326" rx="22" fill="#FFFDF8" stroke="#ECDABF" stroke-width="3"/>
  <rect x="78" y="186" width="292" height="86" rx="16" fill="#FFEEDC" stroke="#F7C8AA" stroke-width="3"/>
  <rect x="80" y="290" width="90" height="36" rx="12" fill="#71B8FB"/>
  <rect x="180" y="290" width="90" height="36" rx="12" fill="#71B8FB"/>
  <rect x="280" y="290" width="90" height="36" rx="12" fill="#71B8FB"/>

  <rect x="410" y="146" width="332" height="326" rx="22" fill="#FFFDF8" stroke="#ECDABF" stroke-width="3"/>
  <rect x="430" y="194" width="292" height="250" rx="16" fill="url(#sky)" stroke="#EFCDAF" stroke-width="2"/>

  <ellipse cx="506" cy="362" rx="24" ry="30" fill="#FF8FA8"/>
  <ellipse cx="564" cy="290" rx="24" ry="30" fill="#77C7FF"/>
  <ellipse cx="622" cy="340" rx="24" ry="30" fill="#9AE29A"/>
  <ellipse cx="680" cy="274" rx="24" ry="30" fill="#FFCF6E"/>

  <line x1="506" y1="392" x2="506" y2="414" stroke="#7E7E7E" stroke-width="2"/>
  <line x1="564" y1="320" x2="564" y2="342" stroke="#7E7E7E" stroke-width="2"/>
  <line x1="622" y1="370" x2="622" y2="392" stroke="#7E7E7E" stroke-width="2"/>
  <line x1="680" y1="304" x2="680" y2="326" stroke="#7E7E7E" stroke-width="2"/>

  <text x="499" y="368" fill="#FFFFFF" font-size="26" font-family="Nunito, Arial" font-weight="800">К</text>
  <text x="558" y="296" fill="#FFFFFF" font-size="26" font-family="Nunito, Arial" font-weight="800">І</text>
  <text x="615" y="347" fill="#FFFFFF" font-size="26" font-family="Nunito, Arial" font-weight="800">Т</text>
  <text x="673" y="280" fill="#FFFFFF" font-size="26" font-family="Nunito, Arial" font-weight="800">!</text>
</svg>
